<svg xmlns="http://www.w3.org/2000/svg" width="720" height="720" viewBox="0 0 720 720"><rect width="720" height="720" fill="#fff1f2"/><circle cx="360" cy="285" r="126" fill="#8d5c48"/><path d="M222 610c18-116 91-176 138-176s120 60 138 176" fill="#6d214f"/><path d="M235 300c0-116 58-178 128-178 78 0 132 64 132 178-38-44-83-64-132-64-54 0-96 20-128 64Z" fill="#171717"/><circle cx="314" cy="292" r="12" fill="#1f2933"/><circle cx="406" cy="292" r="12" fill="#1f2933"/><path d="M328 358c21 15 43 15 64 0" fill="none" stroke="#4a2f22" stroke-width="12" stroke-linecap="round"/><text x="360" y="88" text-anchor="middle" font-family="Arial" font-size="28" font-weight="700" fill="#6d214f">Aisha Khan</text><text x="360" y="675" text-anchor="middle" font-family="Arial" font-size="18" fill="#52616b">Synthetic demo photo</text></svg>
