<svg xmlns="http://www.w3.org/2000/svg" width="720" height="720" viewBox="0 0 720 720"><rect width="720" height="720" fill="#ecfdf5"/><circle cx="360" cy="285" r="126" fill="#9a6a48"/><path d="M222 610c18-116 91-176 138-176s120 60 138 176" fill="#14532d"/><path d="M248 245c26-80 75-122 132-122 74 0 120 54 116 148-40-24-78-36-116-36-51 0-94 4-132 10Z" fill="#2b211c"/><circle cx="314" cy="292" r="12" fill="#1f2933"/><circle cx="406" cy="292" r="12" fill="#1f2933"/><path d="M328 358c21 15 43 15 64 0" fill="none" stroke="#4a2f22" stroke-width="12" stroke-linecap="round"/><text x="360" y="88" text-anchor="middle" font-family="Arial" font-size="28" font-weight="700" fill="#14532d">Arjun Mehta</text><text x="360" y="675" text-anchor="middle" font-family="Arial" font-size="18" fill="#52616b">Synthetic demo photo</text></svg>
