<svg xmlns="http://www.w3.org/2000/svg" width="720" height="720" viewBox="0 0 720 720"><rect width="720" height="720" fill="#e8f3f1"/><circle cx="360" cy="285" r="128" fill="#9b6b4f"/><path d="M222 610c18-116 91-176 138-176s120 60 138 176" fill="#17324d"/><path d="M240 270c18-92 68-147 139-147 82 0 128 62 116 166-28-36-63-55-111-55-54 0-96 13-144 36Z" fill="#222"/><circle cx="314" cy="289" r="12" fill="#1f2933"/><circle cx="406" cy="289" r="12" fill="#1f2933"/><path d="M326 356c23 18 47 18 70 0" fill="none" stroke="#4a2f22" stroke-width="12" stroke-linecap="round"/><text x="360" y="88" text-anchor="middle" font-family="Arial" font-size="28" font-weight="700" fill="#17324d">Rahul Sharma</text><text x="360" y="675" text-anchor="middle" font-family="Arial" font-size="18" fill="#52616b">Synthetic demo photo</text></svg>
