<svg xmlns="http://www.w3.org/2000/svg" width="720" height="720" viewBox="0 0 720 720"><rect width="720" height="720" fill="#eef2ff"/><circle cx="360" cy="285" r="126" fill="#7c4f3c"/><path d="M222 610c18-116 91-176 138-176s120 60 138 176" fill="#263e7a"/><path d="M230 312c12-126 70-190 132-190 88 0 142 76 128 198-42-52-82-75-128-75-55 0-98 22-132 67Z" fill="#1f1f1f"/><circle cx="314" cy="292" r="12" fill="#1f2933"/><circle cx="406" cy="292" r="12" fill="#1f2933"/><path d="M328 358c21 15 43 15 64 0" fill="none" stroke="#4a2f22" stroke-width="12" stroke-linecap="round"/><text x="360" y="88" text-anchor="middle" font-family="Arial" font-size="28" font-weight="700" fill="#263e7a">Neha Iyer</text><text x="360" y="675" text-anchor="middle" font-family="Arial" font-size="18" fill="#52616b">Synthetic demo photo</text></svg>
